Coordinates
version=1
nRows=9
nColumns=36
inDegrees=yes

Units are S.I. units (second, meters, Newtons, ...)
If the header above contains a line with 'inDegrees', this indicates whether rotational values are in degrees (yes) or radians (no).

endheader
time	pelvis_tilt	pelvis_list	pelvis_rotation	pelvis_tx	pelvis_ty	pelvis_tz	hip_flexion_r	hip_adduction_r	hip_rotation_r	knee_angle_r	knee_angle_r_beta	ankle_angle_r	subtalar_angle_r	mtp_angle_r	hip_flexion_l	hip_adduction_l	hip_rotation_l	knee_angle_l	knee_angle_l_beta	ankle_angle_l	subtalar_angle_l	mtp_angle_l	lumbar_extension	lumbar_bending	lumbar_rotation	arm_flex_r	arm_add_r	arm_rot_r	elbow_flex_r	pro_sup_r	arm_flex_l	arm_add_l	arm_rot_l	elbow_flex_l	pro_sup_l
      1.08333330	      1.68430716	      0.52937754	     -3.97285371	     -0.12718057	      1.24140187	     -0.07190334	     -2.07949035	     -3.59548277	      8.24174404	      1.75110224	      0.03056250	     11.43948914	     -2.95139820	     -7.49999987	     -3.09134435	      0.21232159	     -1.17963935	      7.50066113	      0.13091123	      8.83128711	     -7.08672553	     -7.49999987	    -13.91012915	     -0.70322598	     -2.34295825	      6.31501781	    -14.64778501	      6.49983626	     33.00214398	     97.13347369	      0.82990437	    -14.41698885	      7.07715872	     31.23063162	    102.59848959
      1.10000000	      1.53769389	      0.53472196	     -4.02547617	     -0.12692002	      1.24152000	     -0.07199534	     -1.91290988	     -3.60019595	      8.24070415	      1.79865038	      0.03139237	     11.51177450	     -3.00622572	     -7.49999987	     -2.96954826	      0.22907196	     -1.18522104	      7.42702476	      0.12962604	      8.58107370	     -7.26064039	     -7.49999987	    -13.68093155	     -0.72390985	     -2.29275713	      6.17888730	    -14.53938489	      6.13675445	     32.83270981	     97.38743759	      0.83089809	    -14.35179825	      6.88985335	     31.14882335	    102.84139926
      1.11666670	      1.44219973	      0.57531662	     -4.10852296	     -0.12674948	      1.24075300	     -0.07173771	     -1.79534616	     -3.65733759	      8.32046337	      1.83030531	      0.03194485	     11.52793657	     -3.09936769	     -7.49999987	     -2.91656251	      0.30322922	     -1.23311910	      7.38075066	      0.12881840	      8.51416738	     -7.23880573	     -7.49999987	    -13.45287942	     -0.75214315	     -2.27604453	      6.27318190	    -14.55764003	      6.79668616	     32.49320491	     94.57281935	      0.79567789	    -14.31488664	      7.66833896	     30.44631263	     99.80281228
      1.13333330	      1.41874949	      0.60379831	     -4.12248485	     -0.12669750	      1.23770745	     -0.07175085	     -1.75752407	     -3.68646253	      8.33072745	      1.83201618	      0.03197471	     11.65973517	     -2.98801296	     -7.49999987	     -2.89496996	      0.33393231	     -1.31289557	      7.40975643	      0.12932465	      8.50004047	     -7.14146719	     -7.49999987	    -13.39783326	     -0.81230998	     -2.11784887	      5.96243375	    -14.56704743	      6.22376156	     32.79213251	     96.84922101	      0.90579326	    -14.38593997	      7.56385827	     30.57094044	    102.57878378
      1.15000000	      1.49891468	      0.57997468	     -4.20099464	     -0.11750888	      1.23733472	     -0.06728570	     -1.93309106	     -3.65929568	      8.35533932	      1.82728667	      0.03189217	     11.72682146	     -2.98829808	     -7.49999987	     -3.04143645	      0.29855613	     -1.36807929	      7.47876267	      0.13052903	      8.49711018	     -7.19439731	     -7.49999987	    -13.30540855	     -0.86085443	     -2.12887825	      5.61616901	    -14.47418443	      6.26301829	     32.70171555	     96.85746697	      0.65786949	    -14.43768754	      7.55959501	     30.48542864	    102.57268348
      1.16666670	      1.51288998	      0.64363154	     -4.24512985	     -0.12654688	      1.23762352	     -0.07172871	     -1.91355547	     -3.72877230	      8.48560713	      1.77533699	      0.03098548	     11.77809260	     -2.93918350	     -7.49999987	     -3.05963060	      0.36248083	     -1.31109425	      7.55030740	      0.13177772	      8.44311139	     -7.16060713	     -7.49999987	    -13.28291799	     -0.94638154	     -2.15608572	      5.45955855	    -14.42315938	      6.29337138	     32.62236826	     96.86657000	      0.70739790	    -14.46681711	      7.54975175	     30.50624164	    102.56174234
      1.18333330	      1.58681633	      0.62192883	     -4.33073493	     -0.11769208	      1.23719601	     -0.06716503	     -2.03986331	     -3.70553275	      8.51521502	      1.77418067	      0.03096529	     11.81261110	     -2.93429143	     -7.49999987	     -3.18458022	      0.32387249	     -1.32038630	      7.62970967	      0.13316355	      8.47290815	     -7.20416563	     -7.49999987	    -13.21973518	     -0.98611313	     -2.13326665	      5.19932899	    -14.34729763	      6.32682765	     32.54296264	     96.87164148	      0.51519382	    -14.50598269	      7.55132205	     30.43951391	    102.55647760
      1.20000000	      1.60229370	      0.62844783	     -4.35795197	     -0.12667179	      1.23747837	     -0.07168867	     -2.02646035	     -3.72007118	      8.51867930	      1.76230342	      0.03075800	     11.81526489	     -2.93358655	     -7.49999987	     -3.15191253	      0.31715257	     -1.32425600	      7.61726445	      0.13294634	      8.47814064	     -7.20723335	     -7.49999987	    -13.21164094	     -0.99274279	     -2.13650344	      5.18379145	    -14.34110878	      6.32900992	     32.53944429	     96.87175691	      0.51134775	    -14.51109560	      7.55075030	     30.43939998	    102.55610415
      1.21666670	      1.65475771	      0.65513208	     -4.29911721	     -0.12686972	      1.23707915	     -0.07139470	     -1.98717107	     -3.70902158	      8.59654902	      1.73127582	      0.03021646	     11.86118477	     -2.76297860	     -7.49999987	     -3.09162835	      0.32675094	     -1.32105719	      7.63214332	      0.13320603	      8.69288678	     -7.30980747	     -7.49999987	    -13.24399035	     -1.09714907	     -1.82761393	      5.00059308	    -14.55091623	      7.64721605	     32.20022427	     94.66949287	      1.19454523	    -14.81137374	      9.94556600	     30.02759778	     99.85172844
